#N canvas 48 260 1285 801 12;
#X obj 122 449 cos~;
#X obj 144 377 +~;
#X obj 396 95 / 100;
#X obj 127 144 phasor~;
#X obj 263 219 osc~;
#X obj 263 198 *;
#X text 320 53 mod 1;
#X obj 552 90 / 100;
#X obj 358 231 osc~;
#X obj 358 210 *;
#X text 501 60 mod 2;
#X obj 122 473 hip~;
#X obj 122 497 outlet~;
#X obj 299 10 inlet;
#X obj 122 26 inlet;
#X text 184 18 fundamental;
#X obj 258 293 *~ 1;
#X obj 361 295 *~ 1;
#X obj 294 82 t b f;
#X obj 474 87 t b f;
#X obj 478 11 inlet;
#X obj 299 34 f \$2;
#X obj 478 35 f \$4;
#X obj 401 13 inlet;
#X text 432 59 idx1;
#X obj 567 21 inlet;
#X text 614 20 idx2;
#X obj 401 37 f \$3;
#X obj 567 45 f \$5;
#X obj 122 50 f \$1;
#X connect 0 0 11 0;
#X connect 1 0 0 0;
#X connect 2 0 16 1;
#X connect 3 0 1 0;
#X connect 4 0 16 0;
#X connect 5 0 4 0;
#X connect 7 0 17 1;
#X connect 8 0 17 0;
#X connect 9 0 8 0;
#X connect 11 0 12 0;
#X connect 13 0 21 0;
#X connect 14 0 29 0;
#X connect 16 0 1 1;
#X connect 17 0 1 1;
#X connect 18 0 5 0;
#X connect 18 1 5 1;
#X connect 19 0 9 0;
#X connect 19 1 9 1;
#X connect 20 0 22 0;
#X connect 21 0 18 0;
#X connect 22 0 19 0;
#X connect 23 0 27 0;
#X connect 25 0 28 0;
#X connect 27 0 2 0;
#X connect 28 0 7 0;
#X connect 29 0 3 0;
#X connect 29 0 5 0;
#X connect 29 0 9 0;
