#N canvas 344 165 1549 500 12;
#X obj 378 209 delwrite~ \$0-dkfbdellop \$1;
#X obj 627 163 delread~ \$0-dkfbdellop \$2;
#X obj 344 26 inlet~;
#X obj 361 141 +~;
#X obj 495 426 outlet~;
#X obj 962 100 loadbang;
#X text 1043 163 dry;
#X msg 1001 240 1;
#X obj 479 356 *~ 1;
#X obj 539 268 *~ \$3;
#X text 13 144 ARGS:;
#X text 10 105 * = defaults;
#X text 22 228 INLETS:;
#X text 410 26 input;
#X text 15 330 OUTLETS:;
#X text 17 353 signal~;
#X text 1222 17 derek kwan 2017;
#X text 1228 60 gpl v 3;
#X text 14 10 dkfbdel~;
#X obj 1137 230 moses 1e-30;
#X obj 1001 215 moses 1e-30;
#X obj 654 378 *~ 0.5;
#X text 1228 38 pdkvabs;
#X text 12 33 simple delay with fb and lop;
#X obj 721 39 inlet;
#X text 779 39 params;
#X obj 630 219 lop~;
#X text 1139 166 wet;
#X obj 1001 190 f \$5;
#X obj 1137 205 f \$6;
#X obj 962 124 t b b b;
#X obj 887 162 f \$4;
#X obj 887 186 moses 1;
#X msg 878 214 10000;
#X obj 719 73 route delaytime fb lop dry wet clear;
#X msg 456 165 clear;
#X text 24 254 input/delaytime/fb/params;
#X obj 469 23 inlet;
#X text 519 22 delaytime;
#X obj 613 25 inlet;
#X text 661 22 fb;
#X msg 1137 255 1;
#X text 13 166 maxdelay/deltime/fb/lop/dry(*1)/wet(*1);
#X connect 1 0 26 0;
#X connect 2 0 3 0;
#X connect 2 0 8 0;
#X connect 3 0 0 0;
#X connect 5 0 30 0;
#X connect 7 0 8 1;
#X connect 8 0 4 0;
#X connect 9 0 3 1;
#X connect 19 0 41 0;
#X connect 19 1 21 1;
#X connect 20 0 7 0;
#X connect 20 1 8 1;
#X connect 21 0 4 0;
#X connect 24 0 34 0;
#X connect 26 0 9 0;
#X connect 26 0 21 0;
#X connect 28 0 20 0;
#X connect 29 0 19 0;
#X connect 30 0 31 0;
#X connect 30 1 28 0;
#X connect 30 2 29 0;
#X connect 31 0 32 0;
#X connect 32 0 33 0;
#X connect 32 1 26 1;
#X connect 33 0 26 1;
#X connect 34 0 1 0;
#X connect 34 1 9 1;
#X connect 34 2 26 1;
#X connect 34 3 8 1;
#X connect 34 4 21 1;
#X connect 34 5 35 0;
#X connect 35 0 0 0;
#X connect 37 0 1 0;
#X connect 39 0 9 1;
#X connect 41 0 21 1;
