#N canvas 381 263 1423 616 12;
#X obj 343 234 noise~;
#X obj 343 256 *~;
#X obj 426 257 *~;
#X obj 426 279 *~;
#X obj 425 236 line~;
#X obj 504 250 *~;
#X obj 504 272 *~;
#X obj 503 229 line~;
#X obj 426 301 *~;
#X obj 504 294 *~;
#X obj 449 18 inlet;
#X obj 342 546 outlet~;
#X obj 344 394 hip~ 10000;
#X obj 346 372 vcf~ 200;
#X text 652 7 Derek Kwan 2016;
#X text 653 29 pdksynth;
#X text 661 49 gpl v 3;
#X text 1 11 dkhh1~ - hi hat synth;
#X obj 810 94 inlet;
#X obj 693 119 loadbang;
#X msg 798 291 125;
#X obj 613 81 inlet;
#X text 649 104 freq;
#X msg 670 278 5000;
#X obj 698 417 * 2;
#X obj 649 537 pack f f f, f 34;
#X obj 423 119 list;
#X obj 667 321 min 10000;
#X text 874 76 dur;
#X obj 986 118 inlet;
#X text 1032 120 hipass;
#X obj 693 143 t b b b, f 27;
#X obj 893 183 f \$3;
#X msg 893 231 10000;
#X obj 954 290 f;
#X obj 798 267 moses 1;
#X obj 670 254 moses 1;
#X obj 893 207 moses 1;
#X obj 344 494 *~ 1, f 25;
#X text 489 14 trig/vol;
#X obj 449 42 route bang float;
#X obj 498 97 t b f;
#X msg 441 70 1;
#X obj 670 230 f \$1;
#X obj 798 243 f \$2;
#X obj 670 370 t f f;
#X obj 797 344 t b f;
#X msg 422 191 1 \, 0 \$3;
#X msg 504 192 \$1 \, \$2 \$3;
#X text 16 96 args: freq \, dur \, hipass;
#X text 24 160 inlets: trig \, freq \, dur \, hipass;
#X connect 0 0 1 0;
#X connect 1 0 13 0;
#X connect 2 0 3 0;
#X connect 2 0 3 1;
#X connect 3 0 8 0;
#X connect 3 0 8 1;
#X connect 4 0 2 0;
#X connect 4 0 2 1;
#X connect 5 0 6 0;
#X connect 5 0 6 1;
#X connect 6 0 9 0;
#X connect 6 0 9 1;
#X connect 7 0 5 0;
#X connect 7 0 5 1;
#X connect 8 0 1 1;
#X connect 9 0 13 1;
#X connect 10 0 40 0;
#X connect 12 0 38 0;
#X connect 13 0 12 0;
#X connect 18 0 35 0;
#X connect 19 0 31 0;
#X connect 20 0 46 0;
#X connect 21 0 27 0;
#X connect 23 0 27 0;
#X connect 24 0 25 1;
#X connect 25 0 26 1;
#X connect 26 0 47 0;
#X connect 26 0 48 0;
#X connect 27 0 45 0;
#X connect 29 0 34 0;
#X connect 31 0 43 0;
#X connect 31 1 44 0;
#X connect 31 2 32 0;
#X connect 32 0 37 0;
#X connect 33 0 34 0;
#X connect 34 0 12 1;
#X connect 35 0 20 0;
#X connect 35 1 46 0;
#X connect 36 0 23 0;
#X connect 36 1 27 0;
#X connect 37 0 33 0;
#X connect 37 1 34 0;
#X connect 38 0 11 0;
#X connect 40 0 42 0;
#X connect 40 1 41 0;
#X connect 41 0 26 0;
#X connect 41 1 38 1;
#X connect 42 0 41 0;
#X connect 43 0 36 0;
#X connect 44 0 35 0;
#X connect 45 0 25 0;
#X connect 45 1 24 0;
#X connect 46 0 25 0;
#X connect 46 1 25 2;
#X connect 47 0 4 0;
#X connect 48 0 7 0;
