#N canvas 743 244 1098 462 12;
#X obj 122 35 inlet~;
#X obj 129 426 outlet~;
#X obj 203 35 inlet;
#X obj 122 182 ../abs/dkfbdellop~ 2000 750 0.5 250 1 0, f 65;
#X msg 485 122 lop \$1;
#X msg 552 120 dry \$1;
#X msg 623 120 wet \$1;
#X obj 123 231 ../abs/dkdistort~ 0;
#X obj 127 285 ../abs/dkbitcrush~ 16 1;
#X obj 208 75 route distort bitcrush ratered delaytime fb fblop dry
wet lop, f 72;
#X obj 803 60 loadbang;
#X msg 803 84 lop 20000;
#X obj 133 386 vcf~ 3;
#X connect 0 0 3 0;
#X connect 2 0 9 0;
#X connect 3 0 7 0;
#X connect 4 0 3 3;
#X connect 5 0 3 3;
#X connect 6 0 3 3;
#X connect 7 0 8 0;
#X connect 8 0 12 0;
#X connect 9 0 7 1;
#X connect 9 1 8 1;
#X connect 9 2 8 2;
#X connect 9 3 3 1;
#X connect 9 4 3 2;
#X connect 9 5 4 0;
#X connect 9 6 5 0;
#X connect 9 7 6 0;
#X connect 9 8 12 1;
#X connect 10 0 11 0;
#X connect 11 0 9 0;
#X connect 12 1 1 0;
