#N canvas 258 245 1405 897 12;
#X obj 122 35 inlet~;
#X obj 165 839 outlet~;
#X obj 203 35 inlet;
#X obj 180 616 ../abs/dkfbdellop~ 2000 750 0.5 250 1 0, f 65;
#X msg 550 506 lop \$1;
#X msg 617 504 dry \$1;
#X msg 688 504 wet \$1;
#X obj 181 665 ../abs/dkdistort~ 0;
#X obj 191 724 ../abs/dkbitcrush~ 16 1;
#X obj 208 75 route distort bitcrush ratered delaytime fb fblop dry
wet lop, f 62;
#X obj 908 12 loadbang;
#X obj 174 568 ../abs/dkchorus~, f 43;
#X obj 154 468 ../abs/dkphaser~;
#X obj 181 524 ../abs/dkflanger~, f 41;
#X msg 849 273 depth \$1;
#X msg 925 269 rate \$1;
#X msg 991 264 width \$1;
#X msg 1073 269 fb \$1;
#X obj 188 137 gkline;
#X obj 248 169 gkline;
#X obj 282 298 gkline;
#X obj 390 263 gkline;
#X obj 535 463 gkline;
#X obj 610 453 gkline;
#X obj 660 422 gkline;
#X obj 732 432 gkline;
#X obj 650 190 gkline;
#X obj 718 191 gkline;
#X obj 833 211 gkline;
#X obj 910 233 gkline;
#X obj 975 230 gkline;
#X obj 1072 211 gkline;
#X obj 1188 212 gkline;
#X obj 1225 275 gkline;
#X obj 715 129 route phdepth phrate fldepth flrate flwidth flfb chdepth
chrate;
#X obj 189 767 lop~ 20000;
#X msg 908 36 lop 20000 \, dry 1 \, wet 0 \, fblop 500;
#X connect 0 0 12 0;
#X connect 2 0 9 0;
#X connect 3 0 7 0;
#X connect 4 0 3 3;
#X connect 5 0 3 3;
#X connect 6 0 3 3;
#X connect 7 0 8 0;
#X connect 8 0 35 0;
#X connect 9 0 18 0;
#X connect 9 1 19 0;
#X connect 9 2 20 0;
#X connect 9 3 3 1;
#X connect 9 4 21 0;
#X connect 9 5 22 0;
#X connect 9 6 23 0;
#X connect 9 7 24 0;
#X connect 9 8 25 0;
#X connect 9 9 34 0;
#X connect 10 0 36 0;
#X connect 11 0 3 0;
#X connect 12 0 13 0;
#X connect 13 0 11 0;
#X connect 14 0 13 1;
#X connect 15 0 13 1;
#X connect 16 0 13 1;
#X connect 17 0 13 1;
#X connect 18 0 7 1;
#X connect 19 0 8 1;
#X connect 20 0 8 2;
#X connect 21 0 3 2;
#X connect 22 0 4 0;
#X connect 23 0 5 0;
#X connect 24 0 6 0;
#X connect 25 0 35 1;
#X connect 26 0 12 1;
#X connect 27 0 12 2;
#X connect 28 0 14 0;
#X connect 29 0 15 0;
#X connect 30 0 16 0;
#X connect 31 0 17 0;
#X connect 32 0 11 1;
#X connect 33 0 11 2;
#X connect 34 0 26 0;
#X connect 34 1 27 0;
#X connect 34 2 28 0;
#X connect 34 3 29 0;
#X connect 34 4 30 0;
#X connect 34 5 31 0;
#X connect 34 6 32 0;
#X connect 34 7 33 0;
#X connect 35 0 1 0;
#X connect 36 0 9 0;
