#N canvas 644 114 1401 947 12;
#X obj 233 320 unpack f f f f;
#X obj 114 642 *~;
#X obj 96 74 inlet;
#X obj 96 150 mtof;
#X obj 453 64 inlet;
#X obj 290 70 inlet;
#X text 348 67 panning;
#X obj 114 747 outlet~;
#X obj 189 752 outlet~;
#X obj 91 479 ../abs/dk2fm~, f 33;
#X obj 280 638 ../abs/dkvanadsr~;
#X obj 114 723 ../abs/dkcospan~ 0;
#X text 154 79 midinote midivol;
#X obj 96 98 unpack f f;
#X obj 155 172 / 127;
#X text 506 69 timbre params;
#X text 507 87 mod idx mod idx;
#X obj 188 362 i;
#X obj 257 404 i;
#X obj 630 56 inlet;
#X text 710 62 adsr params;
#X obj 628 107 unpack f f f f;
#X obj 188 386 / 1;
#X obj 257 428 / 1;
#X obj 973 70 inlet;
#X text 1026 71 dur;
#X msg 403 247 lvl \$1 \, bang;
#X msg 948 167 dur \$1;
#X obj 820 56 inlet;
#X text 872 57 detune;
#X obj 522 553 ../abs/dk2fm~, f 33;
#X obj 694 609 ../abs/dkvanadsr~;
#X obj 522 577 *~;
#X obj 143 219 * 1;
#X obj 114 666 *~ 0.125;
#X connect 0 0 17 0;
#X connect 0 0 30 1;
#X connect 0 1 9 2;
#X connect 0 1 30 2;
#X connect 0 2 18 0;
#X connect 0 2 30 3;
#X connect 0 3 9 4;
#X connect 0 3 30 4;
#X connect 1 0 34 0;
#X connect 2 0 13 0;
#X connect 3 0 9 0;
#X connect 3 0 33 0;
#X connect 4 0 0 0;
#X connect 5 0 11 1;
#X connect 9 0 1 0;
#X connect 10 0 1 1;
#X connect 11 0 7 0;
#X connect 11 1 8 0;
#X connect 13 0 3 0;
#X connect 13 1 14 0;
#X connect 14 0 26 0;
#X connect 17 0 22 0;
#X connect 18 0 23 0;
#X connect 19 0 21 0;
#X connect 21 0 10 1;
#X connect 21 0 31 1;
#X connect 21 1 10 2;
#X connect 21 1 31 2;
#X connect 21 2 10 3;
#X connect 21 2 31 3;
#X connect 21 3 10 4;
#X connect 21 3 31 4;
#X connect 22 0 9 1;
#X connect 23 0 9 3;
#X connect 24 0 27 0;
#X connect 26 0 10 0;
#X connect 26 0 31 0;
#X connect 27 0 10 0;
#X connect 27 0 31 0;
#X connect 28 0 33 1;
#X connect 30 0 32 0;
#X connect 31 0 32 1;
#X connect 32 0 1 0;
#X connect 33 0 30 0;
#X connect 34 0 11 0;
