#N canvas 623 114 753 665 12;
#X obj 86 74 notein 10;
#N canvas 294 136 635 517 mappings 0;
#X text 223 156 35 acoustic bd;
#X text 227 181 36 bd1;
#X text 232 208 37 sidestick;
#X text 227 243 38 acoustic snare;
#X text 223 292 40 electric snare;
#X text 222 320 42 closed hh;
#X text 227 353 44 pedal hh;
#X text 217 381 46 open hh;
#X text 222 268 39 clap;
#X restore 515 333 pd mappings;
#X obj 140 107 / 127;
#N canvas 877 140 981 716 drumbank 0;
#X obj 151 32 inlet;
#X text 195 31 midinote;
#X obj 350 660 outlet~;
#X obj 48 237 abs/dkbd1~;
#X obj 108 278 abs/dkbd2~;
#X obj 229 273 abs/dksd1~;
#X obj 341 224 abs/dkclap2~;
#X obj 518 267 abs/dksd3~;
#X obj 442 333 abs/dkhh1~;
#X obj 155 71 route 35 36 37 38 39 40 41 42 43 44 45 46, f 88;
#X obj 565 334 abs/dkhh3~;
#X obj 707 351 abs/dkhh1~ 5000 500;
#X connect 0 0 9 0;
#X connect 3 0 2 0;
#X connect 4 0 2 0;
#X connect 5 0 2 0;
#X connect 6 0 2 0;
#X connect 7 0 2 0;
#X connect 8 0 2 0;
#X connect 9 0 3 0;
#X connect 9 1 4 0;
#X connect 9 3 5 0;
#X connect 9 4 6 0;
#X connect 9 5 7 0;
#X connect 9 7 8 0;
#X connect 9 9 10 0;
#X connect 9 11 11 0;
#X connect 10 0 2 0;
#X connect 11 0 2 0;
#X restore 65 201 pd drumbank;
#X obj 82 149 pack f f;
#X obj 89 252 abs/dkcospan~ 0;
#X obj 102 432 outlet~;
#X obj 191 435 outlet~;
#X msg 216 140 38 1;
#X obj 480 52 inlet;
#X text 533 48 panning;
#X obj 263 54 inlet;
#X obj 391 121 loadbang;
#X msg 391 145 1;
#X obj 247 199 line~;
#X msg 258 145 \$1 5;
#X obj 93 357 *~;
#X obj 245 368 *~;
#X text 316 60 volume;
#X connect 0 0 4 0;
#X connect 0 1 2 0;
#X connect 2 0 4 1;
#X connect 3 0 5 0;
#X connect 4 0 3 0;
#X connect 5 0 16 0;
#X connect 5 1 17 0;
#X connect 8 0 3 0;
#X connect 9 0 5 1;
#X connect 11 0 15 0;
#X connect 12 0 13 0;
#X connect 13 0 14 0;
#X connect 14 0 16 1;
#X connect 14 0 17 1;
#X connect 15 0 14 0;
#X connect 16 0 6 0;
#X connect 17 0 7 0;
