#N canvas 623 114 753 665 12;
#N canvas 294 136 635 517 mappings 0;
#X text 223 156 35 acoustic bd;
#X text 227 181 36 bd1;
#X text 232 208 37 sidestick;
#X text 227 243 38 acoustic snare;
#X text 223 292 40 electric snare;
#X text 222 320 42 closed hh;
#X text 227 353 44 pedal hh;
#X text 217 381 46 open hh;
#X text 222 268 39 clap;
#X restore 515 333 pd mappings;
#X obj 153 180 / 127;
#N canvas 877 135 981 716 drumbank 0;
#X obj 151 32 inlet;
#X text 195 31 midinote;
#X obj 350 660 outlet~;
#X obj 108 278 abs/dkbd2~;
#X obj 341 224 abs/dkclap2~;
#X obj 518 267 abs/dksd3~;
#X obj 155 71 route 35 36 37 38 39 40 41 42 43 44 45 46, f 88;
#X obj 565 334 abs/dkhh3~;
#X obj 707 351 abs/dkhh1~ 5000 500;
#X obj 393 357 *~ 0.5;
#X obj 707 375 *~ 0.5;
#X obj 565 358 *~ 0.5;
#X obj 393 333 abs/dkhh1~ 5000 125;
#X obj 48 237 abs/dkbd1~ 60 150;
#X obj 229 273 abs/dksd1~ 300 100;
#X connect 0 0 6 0;
#X connect 3 0 2 0;
#X connect 4 0 2 0;
#X connect 5 0 2 0;
#X connect 6 0 13 0;
#X connect 6 1 3 0;
#X connect 6 3 14 0;
#X connect 6 4 4 0;
#X connect 6 5 5 0;
#X connect 6 7 12 0;
#X connect 6 9 7 0;
#X connect 6 11 8 0;
#X connect 7 0 11 0;
#X connect 8 0 10 0;
#X connect 9 0 2 0;
#X connect 10 0 2 0;
#X connect 11 0 2 0;
#X connect 12 0 9 0;
#X connect 13 0 2 0;
#X connect 14 0 2 0;
#X restore 89 311 pd drumbank;
#X obj 85 255 pack f f;
#X obj 112 344 abs/dkcospan~ 0;
#X obj 125 524 outlet~;
#X obj 214 527 outlet~;
#X msg 216 140 38 1;
#X obj 480 52 inlet;
#X text 533 48 panning;
#X obj 263 54 inlet;
#X obj 391 121 loadbang;
#X msg 391 145 1;
#X obj 270 291 line~;
#X msg 258 145 \$1 5;
#X obj 116 449 *~;
#X obj 268 460 *~;
#X text 316 60 volume;
#X obj 80 51 unpack f f;
#X obj 91 17 inlet;
#X obj 128 85 t f f;
#X obj 85 174 spigot;
#X obj 121 133 > 20;
#X connect 1 0 3 1;
#X connect 2 0 4 0;
#X connect 3 0 2 0;
#X connect 4 0 15 0;
#X connect 4 1 16 0;
#X connect 7 0 2 0;
#X connect 8 0 4 1;
#X connect 10 0 14 0;
#X connect 11 0 12 0;
#X connect 12 0 13 0;
#X connect 13 0 15 1;
#X connect 13 0 16 1;
#X connect 14 0 13 0;
#X connect 15 0 5 0;
#X connect 16 0 6 0;
#X connect 18 0 21 0;
#X connect 18 1 20 0;
#X connect 19 0 18 0;
#X connect 20 0 22 0;
#X connect 20 1 1 0;
#X connect 21 0 3 0;
#X connect 22 0 21 1;
