#N canvas 623 114 753 665 12;
#N canvas 294 134 635 517 mappings 0;
#X text 223 156 35 acoustic bd;
#X text 227 181 36 bd1;
#X text 232 208 37 sidestick;
#X text 227 243 38 acoustic snare;
#X text 223 292 40 electric snare;
#X text 222 320 42 closed hh;
#X text 227 353 44 pedal hh;
#X text 217 381 46 open hh;
#X text 222 268 39 clap;
#X restore 515 333 pd mappings;
#X obj 153 180 / 127;
#N canvas 126 180 1438 831 drumbank 0;
#X obj 151 32 inlet;
#X text 195 31 midinote;
#X obj 449 796 outlet~;
#X obj 341 224 abs/dkclap2~;
#X obj 155 71 route 35 36 37 38 39 40 41 42 43 44 45 46, f 88;
#X obj 565 334 abs/dkhh3~;
#X obj 707 351 abs/dkhh1~ 5000 500;
#X obj 344 383 *~ 0.5;
#X obj 707 375 *~ 0.5;
#X obj 48 237 abs/dkbd1~ 60 150 0.5;
#X obj 60 112 loadbang;
#X obj 567 174 bng 15 250 50 0 empty empty empty 17 7 0 10 -262144
-1 -1;
#X obj 261 287 abs/dksd5~;
#X obj 518 267 abs/dksd4~ 150 200;
#X obj 722 182 bng 15 250 50 0 empty empty empty 17 7 0 10 -262144
-1 -1;
#X obj 502 173 bng 15 250 50 0 empty empty empty 17 7 0 10 -262144
-1 -1;
#X obj 224 186 bng 15 250 50 0 empty empty empty 17 7 0 10 -262144
-1 -1;
#X obj 299 193 bng 15 250 50 0 empty empty empty 17 7 0 10 -262144
-1 -1;
#X obj 108 297 abs/dkbd2~ 70 5 100;
#X obj 565 358 *~ 0.75;
#X obj 344 359 abs/dkhh1~ 1000 100 10000;
#X msg 60 136 noiseamt 0.5 \, dur 100 \, lop 2500;
#X obj 544 443 bng 15 250 50 0 empty empty empty 17 7 0 10 -262144
-1 -1;
#X text 666 506 low floor tom;
#X text 657 662 hi floor tom;
#X obj 596 595 bng 15 250 50 0 empty empty empty 17 7 0 10 -262144
-1 -1;
#X obj 747 537 bng 15 250 50 0 empty empty empty 17 7 0 10 -262144
-1 -1;
#X text 808 604 low tom;
#X obj 520 506 abs/dkbd1~ 100 150;
#X obj 526 656 abs/dkbd1~ 115 150;
#X obj 677 598 abs/dkbd1~ 140 150;
#X obj 819 125 route 47 48 49 50 51 52 53 54 55 56, f 77;
#X obj 888 155 bng 15 250 50 0 empty empty empty 17 7 0 10 -262144
-1 -1;
#X text 949 222 low mid tom;
#X text 990 271 hi mid tom;
#X obj 979 182 bng 15 250 50 0 empty empty empty 17 7 0 10 -262144
-1 -1;
#X obj 818 216 abs/dkbd1~ 155 150;
#X obj 859 265 abs/dkbd1~ 170 150;
#X obj 962 387 abs/dkbd1~ 190 150;
#X text 1098 390 hi tom;
#X obj 1054 340 bng 15 250 50 0 empty empty empty 17 7 0 10 -262144
-1 -1;
#X obj 770 243 bng 15 250 50 0 empty empty empty 17 7 0 10 -262144
-1 -1;
#X obj 1075 529 abs/dkhh3~;
#X obj 1075 553 *~ 0.75;
#X obj 1148 342 bng 15 250 50 0 empty empty empty 17 7 0 10 -262144
-1 -1;
#X msg 1088 458 freq 3000 \, decay 500 \, q 5;
#X text 1156 535 crash cymbal;
#X obj 1195 370 abs/dkhh3~;
#X obj 1195 394 *~ 0.75;
#X obj 1268 183 bng 15 250 50 0 empty empty empty 17 7 0 10 -262144
-1 -1;
#X text 1276 376 crash cymbal;
#X text 1283 332 splash cymbal;
#X msg 1228 292 freq 11000 \, decay 500 \, q 5;
#X connect 0 0 4 0;
#X connect 3 0 2 0;
#X connect 4 0 9 0;
#X connect 4 1 18 0;
#X connect 4 3 12 0;
#X connect 4 4 3 0;
#X connect 4 5 13 0;
#X connect 4 6 28 0;
#X connect 4 7 20 0;
#X connect 4 8 29 0;
#X connect 4 9 5 0;
#X connect 4 10 30 0;
#X connect 4 11 6 0;
#X connect 4 12 31 0;
#X connect 5 0 19 0;
#X connect 6 0 8 0;
#X connect 7 0 2 0;
#X connect 8 0 2 0;
#X connect 9 0 2 0;
#X connect 10 0 21 0;
#X connect 11 0 13 0;
#X connect 12 0 2 0;
#X connect 13 0 2 0;
#X connect 14 0 5 0;
#X connect 15 0 20 0;
#X connect 16 0 9 0;
#X connect 17 0 18 0;
#X connect 18 0 2 0;
#X connect 19 0 2 0;
#X connect 20 0 7 0;
#X connect 21 0 9 0;
#X connect 22 0 28 0;
#X connect 25 0 29 0;
#X connect 26 0 30 0;
#X connect 28 0 2 0;
#X connect 29 0 2 0;
#X connect 30 0 2 0;
#X connect 31 0 36 0;
#X connect 31 1 37 0;
#X connect 31 2 42 0;
#X connect 31 3 38 0;
#X connect 31 8 47 0;
#X connect 32 0 36 0;
#X connect 35 0 37 0;
#X connect 36 0 2 0;
#X connect 37 0 2 0;
#X connect 38 0 2 0;
#X connect 40 0 38 0;
#X connect 41 0 6 0;
#X connect 42 0 43 0;
#X connect 43 0 2 0;
#X connect 44 0 42 0;
#X connect 45 0 42 1;
#X connect 47 0 48 0;
#X connect 48 0 2 0;
#X connect 49 0 47 0;
#X connect 52 0 47 1;
#X restore 100 294 pd drumbank;
#X obj 85 255 pack f f;
#X obj 111 365 abs/dkcospan~ 0;
#X obj 125 524 outlet~;
#X obj 214 527 outlet~;
#X msg 216 140 38 1;
#X obj 480 52 inlet;
#X text 533 48 panning;
#X obj 263 54 inlet;
#X obj 391 121 loadbang;
#X msg 391 145 1;
#X obj 270 291 line~;
#X msg 258 145 \$1 5;
#X obj 116 449 *~;
#X obj 268 460 *~;
#X text 316 60 volume;
#X obj 80 51 unpack f f;
#X obj 91 17 inlet;
#X obj 128 85 t f f;
#X obj 85 174 spigot;
#X obj 121 133 > 20;
#X obj 124 324 hip~ 20;
#X connect 1 0 3 1;
#X connect 2 0 23 0;
#X connect 3 0 2 0;
#X connect 4 0 15 0;
#X connect 4 1 16 0;
#X connect 7 0 2 0;
#X connect 8 0 4 1;
#X connect 10 0 14 0;
#X connect 11 0 12 0;
#X connect 12 0 13 0;
#X connect 13 0 15 1;
#X connect 13 0 16 1;
#X connect 14 0 13 0;
#X connect 15 0 5 0;
#X connect 16 0 6 0;
#X connect 18 0 21 0;
#X connect 18 1 20 0;
#X connect 19 0 18 0;
#X connect 20 0 22 0;
#X connect 20 1 1 0;
#X connect 21 0 3 0;
#X connect 22 0 21 1;
#X connect 23 0 4 0;
