#N canvas 406 114 1284 973 12;
#X obj 220 765 abs/dkezdac~ 1 2;
#X obj 205 688 abs/vfreeverb~;
#X obj 135 554 ./melsynths_ipt;
#X msg 31 213 stop;
#X obj 91 274 cyclone/midiflush;
#X obj 91 298 cyclone/midiparse @hires 2;
#X obj 652 50 bng 15 250 50 0 empty empty empty 17 7 0 10 -262144 -1
-1;
#X obj 25 282 s panic;
#X obj 145 337 list prepend;
#X obj 145 361 route 10;
#X msg 111 410 \$2 \$3 \$1;
#X obj 103 453 list split 2;
#X obj 287 528 ./drumsynths_ipt;
#X obj 696 143 vsl 15 128 0 1 0 0 empty empty empty 0 -9 0 10 -262144
-1 -1 0 1;
#X floatatom 696 279 5 0 0 0 - - -;
#X obj 763 131 vsl 15 128 0 1 0 0 empty empty empty 0 -9 0 10 -262144
-1 -1 0 1;
#X floatatom 763 267 5 0 0 0 - - -;
#X obj 729 382 loadbang;
#X msg 373 377 dry 1 \, wet 0;
#X msg 436 446 bitcrush 16 \, ratered 4 \, distort 0.25;
#N canvas 885 345 866 697 loadmidifile 0;
#X obj 156 160 random 1000;
#X obj 173 107 bng 15 250 50 0 empty empty empty 17 7 0 10 -262144
-1 -1;
#X obj 73 517 outlet;
#X obj 81 400 list prepend read;
#X obj 81 424 list trim;
#X obj 245 58 inlet;
#X obj 151 494 print;
#X obj 89 355 makefilename ./bits/0%i.mid;
#X obj 157 232 moses 100;
#X obj 87 197 moses 10;
#X obj 70 306 makefilename ./bits/00%i.mid;
#X obj 51 266 makefilename ./bits/000%i.mid;
#X connect 0 0 9 0;
#X connect 1 0 0 0;
#X connect 3 0 4 0;
#X connect 4 0 2 0;
#X connect 4 0 6 0;
#X connect 5 0 0 0;
#X connect 7 0 3 0;
#X connect 8 0 10 0;
#X connect 8 1 7 0;
#X connect 9 0 11 0;
#X connect 9 1 8 0;
#X connect 10 0 3 0;
#X connect 11 0 3 0;
#X restore 445 152 pd loadmidifile;
#X obj 436 8 bng 15 250 50 0 empty empty empty 17 7 0 10 -262144 -1
-1;
#X obj 116 187 cyclone/seq;
#X obj 318 277 s panic;
#X msg 735 439 room 1 \, dry 0.85 \, wet 0.15;
#X obj 190 228 t b b b b b;
#X obj 343 216 spigot;
#X obj 817 103 metro;
#X msg 817 127 tick;
#X obj 869 137 nbx 7 14 -1e+37 1e+37 0 0 empty empty empty 0 -8 0 10
-228856 -1 -1 0 256;
#X obj 869 110 expr 60000 / ($f1 * 24);
#X text 944 130 tick time in ms, f 9;
#X obj 869 91 nbx 3 14 30 240 0 0 empty empty empty 0 -8 0 10 -228856
-1 -1 30 256;
#X text 937 90 BPM;
#X msg 874 44 60;
#X msg 169 118 start -1;
#X msg 276 332 bitcrush 16 \, ratered 16 \, distort 0.5;
#X obj 199 635 gkabs/gkmunger-stereo;
#X obj 520 84 random 40;
#X obj 520 108 + 80;
#X obj 435 55 t b b b;
#X obj 73 34 tgl 15 0 empty empty empty 17 7 0 10 -262144 -1 -1 0 1
;
#X obj 73 54 sel 0 1;
#X msg 103 128 1;
#X msg 45 144 0;
#X obj 24 103 t b b;
#X obj 102 89 t b b b, f 27;
#X connect 1 0 0 0;
#X connect 1 1 0 1;
#X connect 2 0 37 0;
#X connect 2 1 37 1;
#X connect 3 0 7 0;
#X connect 3 0 22 0;
#X connect 4 0 5 0;
#X connect 5 0 8 0;
#X connect 5 6 8 1;
#X connect 6 0 2 2;
#X connect 6 0 2 3;
#X connect 8 0 9 0;
#X connect 9 0 12 0;
#X connect 9 1 10 0;
#X connect 10 0 11 0;
#X connect 11 0 2 0;
#X connect 11 1 2 1;
#X connect 12 0 37 0;
#X connect 12 1 37 1;
#X connect 13 0 14 0;
#X connect 13 0 2 4;
#X connect 15 0 16 0;
#X connect 15 0 12 1;
#X connect 17 0 24 0;
#X connect 17 0 18 0;
#X connect 18 0 37 2;
#X connect 20 0 22 0;
#X connect 21 0 40 0;
#X connect 22 0 4 0;
#X connect 22 1 25 0;
#X connect 24 0 1 2;
#X connect 25 0 26 0;
#X connect 25 3 20 0;
#X connect 25 4 23 0;
#X connect 26 0 22 0;
#X connect 27 0 28 0;
#X connect 28 0 22 0;
#X connect 29 0 27 1;
#X connect 30 0 29 0;
#X connect 32 0 30 0;
#X connect 34 0 32 0;
#X connect 35 0 22 0;
#X connect 36 0 37 2;
#X connect 37 0 1 0;
#X connect 37 1 1 1;
#X connect 38 0 39 0;
#X connect 39 0 32 0;
#X connect 40 0 20 0;
#X connect 40 1 38 0;
#X connect 40 2 6 0;
#X connect 41 0 42 0;
#X connect 42 0 45 0;
#X connect 42 1 46 0;
#X connect 43 0 26 1;
#X connect 43 0 27 0;
#X connect 44 0 26 1;
#X connect 44 0 27 0;
#X connect 45 0 3 0;
#X connect 45 1 44 0;
#X connect 46 0 43 0;
#X connect 46 1 35 0;
#X connect 46 2 40 0;
