#N canvas 163 153 1523 949 12;
#X obj 132 840 abs/dkezdac~ 1 2;
#X obj 135 751 abs/vfreeverb~;
#X obj 47 629 ./melsynths_ipt;
#X msg 31 339 stop;
#X obj 562 170 bng 15 250 50 0 empty empty randomize_timbre 17 7 0
10 -262144 -1 -1;
#X obj 25 408 s panic;
#X obj 172 599 ./drumsynths_ipt;
#X obj 485 350 vsl 15 128 0 1 0 0 empty empty empty 0 -9 0 10 -262144
-1 -1 12700 1;
#X floatatom 485 486 5 0 0 0 - - -;
#X obj 552 338 vsl 15 128 0 1 0 0 empty empty empty 0 -9 0 10 -262144
-1 -1 12700 1;
#X floatatom 552 474 5 0 0 0 - - -;
#X obj 262 407 loadbang;
#N canvas 51 285 866 697 loadmidifile 0;
#X obj 156 160 random 1000;
#X obj 173 107 bng 15 250 50 0 empty empty empty 17 7 0 10 -262144
-1 -1;
#X obj 73 517 outlet;
#X obj 81 400 list prepend read;
#X obj 81 424 list trim;
#X obj 245 58 inlet;
#X obj 151 494 print;
#X obj 89 355 makefilename ./bits/0%i.mid;
#X obj 157 232 moses 100;
#X obj 87 197 moses 10;
#X obj 70 306 makefilename ./bits/00%i.mid;
#X obj 51 266 makefilename ./bits/000%i.mid;
#X connect 0 0 9 0;
#X connect 1 0 0 0;
#X connect 3 0 4 0;
#X connect 4 0 2 0;
#X connect 4 0 6 0;
#X connect 5 0 0 0;
#X connect 7 0 3 0;
#X connect 8 0 10 0;
#X connect 8 1 7 0;
#X connect 9 0 11 0;
#X connect 9 1 8 0;
#X connect 10 0 3 0;
#X connect 11 0 3 0;
#X restore 1029 49 pd loadmidifile;
#X obj 436 8 bng 15 250 50 0 empty empty empty 17 7 0 10 -262144 -1
-1;
#X msg 159 352 start -1;
#X obj 78 722 gkabs/gkmunger-stereo;
#X obj 411 131 random 40;
#X obj 411 155 + 80;
#X obj 69 82 tgl 15 0 empty empty empty 17 7 0 10 -262144 -1 -1 1 1
;
#X obj 71 156 sel 0 1;
#X msg 103 254 1;
#X msg 45 270 0;
#X obj 24 229 t b b;
#X obj 102 215 t b b b, f 27;
#X obj 839 257 vsl 15 128 0 0.75 0 0 empty empty empty 0 -9 0 10 -262144
-1 -1 4077 1;
#X msg 844 414 phdepth \$1;
#X floatatom 882 378 5 0 0 0 - - -;
#X msg 1040 410 phrate \$1;
#N canvas 475 199 747 750 timecalc 0;
#X msg 172 72 60000;
#X obj 172 96 /;
#X obj 172 120 t f f, f 11;
#X obj 172 234 / 24;
#X obj 232 290 t b f;
#X obj 215 359 *;
#X obj 165 11 inlet;
#X obj 172 258 outlet;
#X obj 215 423 outlet;
#X obj 172 48 t b f f, f 22;
#X obj 329 88 t b f, f 10;
#X obj 335 235 * 9600;
#X msg 329 112 120;
#X obj 329 136 /, f 10;
#X text 392 205 lyrics/sec;
#X obj 453 234 r startyrengines;
#X obj 440 341 metro;
#X msg 532 352 0;
#X obj 452 419 f;
#X obj 453 258 t f f;
#X obj 497 285 sel 0;
#X obj 513 413 + 1;
#X obj 452 443 s lyric_choice;
#X obj 215 335 abs/dkrandi 3 16;
#X obj 215 383 / 4;
#X connect 0 0 1 0;
#X connect 1 0 2 0;
#X connect 2 0 3 0;
#X connect 2 1 4 0;
#X connect 3 0 7 0;
#X connect 4 0 23 0;
#X connect 4 1 5 1;
#X connect 5 0 24 0;
#X connect 6 0 9 0;
#X connect 9 0 0 0;
#X connect 9 1 1 1;
#X connect 9 2 10 0;
#X connect 10 0 12 0;
#X connect 10 1 13 1;
#X connect 11 0 16 1;
#X connect 12 0 13 0;
#X connect 13 0 11 0;
#X connect 15 0 19 0;
#X connect 16 0 18 0;
#X connect 17 0 18 1;
#X connect 18 0 21 0;
#X connect 18 0 22 0;
#X connect 19 0 16 0;
#X connect 19 1 20 0;
#X connect 20 0 17 0;
#X connect 21 0 18 1;
#X connect 23 0 5 0;
#X connect 24 0 8 0;
#X restore 322 213 pd timecalc;
#X msg 378 309 delaytime \$1;
#N canvas 87 220 1219 794 midireader 0;
#X obj 164 75 inlet;
#X obj 384 72 inlet;
#X obj 208 638 outlet;
#X obj 269 642 outlet;
#X obj 423 637 outlet;
#X obj 212 327 cyclone/midiflush;
#X obj 212 351 cyclone/midiparse @hires 2;
#X obj 289 410 list prepend;
#X obj 289 434 route 10;
#X msg 255 483 \$2 \$3 \$1;
#X obj 205 510 list split 2;
#X obj 260 260 cyclone/seq;
#X obj 439 354 s panic;
#X obj 363 166 spigot;
#X obj 370 289 t b b b;
#X obj 471 542 outlet;
#X obj 549 77 inlet;
#X obj 458 163 metro;
#X msg 461 196 tick;
#X obj 384 96 t f f;
#X connect 0 0 11 0;
#X connect 1 0 19 0;
#X connect 5 0 6 0;
#X connect 6 0 7 0;
#X connect 6 6 7 1;
#X connect 7 0 8 0;
#X connect 8 0 4 0;
#X connect 8 1 9 0;
#X connect 9 0 10 0;
#X connect 10 0 2 0;
#X connect 10 1 3 0;
#X connect 11 0 5 0;
#X connect 11 1 14 0;
#X connect 13 0 11 0;
#X connect 14 0 13 0;
#X connect 14 1 15 0;
#X connect 14 2 12 0;
#X connect 16 0 17 1;
#X connect 17 0 18 0;
#X connect 18 0 11 0;
#X connect 19 0 17 0;
#X connect 19 1 13 1;
#X restore 27 509 pd midireader;
#X obj 1044 221 vsl 15 128 0.5 3 0 0 empty empty empty 0 -9 0 10 -262144
-1 -1 7572 1;
#X floatatom 1060 375 5 0 0 0 - - -;
#X obj 823 478 vsl 15 128 0 0.75 0 0 empty empty empty 0 -9 0 10 -262144
-1 -1 491 1;
#X floatatom 880 606 5 0 0 0 - - -;
#X obj 1089 476 vsl 15 128 0.5 2 0 0 empty empty empty 0 -9 0 10 -262144
-1 -1 6774 1;
#X floatatom 1115 639 5 0 0 0 - - -;
#X msg 860 647 fldepth \$1;
#X msg 1085 665 flrate \$1;
#X obj 505 231 loadbang;
#X msg 505 255 1;
#X obj 858 235 abs/dkrrand 0 0.75;
#X obj 856 457 abs/dkrrand 0 0.75;
#X obj 1232 480 abs/dkrrand 0.5 5;
#X obj 1219 516 vsl 15 128 0.5 5 0 0 empty empty empty 0 -9 0 10 -262144
-1 -1 7996 1;
#X floatatom 1255 635 5 0 0 0 - - -;
#X msg 1218 672 flwidth \$1;
#X obj 1364 534 vsl 15 128 0 0.5 0 0 empty empty empty 0 -9 0 10 -262144
-1 -1 6765 1;
#X floatatom 1408 636 5 0 0 0 - - -;
#X msg 1359 670 flfb \$1;
#X obj 1373 503 abs/dkrrand 0 0.5;
#X obj 1174 221 vsl 15 128 0 0.1 0 0 empty empty empty 0 -9 0 10 -262144
-1 -1 9768 1;
#X floatatom 1202 348 5 0 0 0 - - -;
#X obj 1363 196 vsl 15 128 0.1 1 0 0 empty empty empty 0 -9 0 10 -262144
-1 -1 3281 1;
#X floatatom 1428 292 5 0 0 0 - - -;
#X msg 1174 378 chdepth \$1;
#X msg 1359 385 chrate \$1;
#X obj 781 121 t b b b b b b b b;
#X obj 790 80 bng 15 250 50 0 empty empty randomize_ch/phaser/fl 17
7 0 10 -262144 -1 -1;
#X text 541 264 vol;
#X obj 996 164 abs/dkrrand 0.5 3;
#X obj 1101 451 abs/dkrrand 0.5 2;
#N canvas 352 114 1049 652 oschandler 0;
#X obj 137 87 oscparse;
#X obj 290 28 loadbang;
#X msg 290 68 listen 3334;
#X obj 274 103 netreceive -u -b;
#X obj 137 111 list trim;
#X obj 427 274 oscformat -f f lyrics;
#X obj 427 298 list prepend send;
#X obj 427 322 list trim;
#X msg 497 139 connect localhost 3333;
#X obj 431 202 hradio 15 1 0 8 empty empty empty 0 -8 0 10 -262144
-1 -1 2;
#X obj 427 346 netsend -u -b;
#X obj 56 246 s startyrengines;
#X obj 137 135 route song stop;
#X obj 678 296 loadbang;
#X obj 591 359 text define miditracks;
#X msg 678 320 read midifiles.txt;
#X obj 138 313 text get miditracks;
#X obj 123 436 makefilename ./midi/%s.mid;
#X obj 123 460 list prepend read;
#X obj 123 484 list trim;
#X obj 123 520 t a b;
#X obj 218 586 outlet;
#X text 229 550 trig;
#X obj 127 587 outlet;
#X obj 134 180 t b f;
#X msg 204 208 0;
#X msg 74 212 1;
#X obj 367 169 r lyric_choice;
#X msg 595 211 1e+07;
#X obj 138 337 unpack s f;
#X text 764 294 w/o extension and length in s;
#X obj 247 368 * 1000;
#X text 315 367 length in ms;
#X obj 247 392 s curlength;
#X connect 0 0 4 0;
#X connect 1 0 2 0;
#X connect 1 0 8 0;
#X connect 2 0 3 0;
#X connect 3 0 0 0;
#X connect 4 0 12 0;
#X connect 5 0 6 0;
#X connect 6 0 7 0;
#X connect 7 0 10 0;
#X connect 8 0 10 0;
#X connect 9 0 5 0;
#X connect 12 0 24 0;
#X connect 12 1 25 0;
#X connect 13 0 15 0;
#X connect 15 0 14 0;
#X connect 16 0 29 0;
#X connect 17 0 18 0;
#X connect 18 0 19 0;
#X connect 19 0 20 0;
#X connect 20 0 23 0;
#X connect 20 1 21 0;
#X connect 24 0 26 0;
#X connect 24 1 16 0;
#X connect 25 0 11 0;
#X connect 26 0 11 0;
#X connect 27 0 5 0;
#X connect 28 0 5 0;
#X connect 29 0 17 0;
#X connect 29 1 31 0;
#X connect 31 0 33 0;
#X restore 342 32 pd oschandler;
#X obj 944 10 loadbang;
#X msg 944 34 \; pd dsp 1;
#X obj 71 124 change;
#X obj 75 24 loadbang;
#X msg 75 48 0;
#X obj 175 48 r startyrengines;
#X obj 1164 176 abs/dkrrand 0 0.1;
#X obj 1334 171 abs/dkrrand 0.1 1;
#X msg 231 551 room 0.75 \, damp 2 \, dry 0.995 \, wet 0.005 \, clear
;
#X floatatom 412 205 5 0 0 0 - - -;
#X obj 649 620 vsl 15 128 0 0.9 0 0 empty empty empty 0 -9 0 10 -262144
-1 -1 0 1;
#X floatatom 694 726 5 0 0 0 - - -;
#X msg 650 763 distort \$1;
#X obj 461 638 vsl 15 128 6 16 0 0 empty empty empty 0 -9 0 10 -262144
-1 -1 12700 1;
#X floatatom 510 811 5 0 0 0 - - -;
#X msg 463 845 bitcrush \$1;
#X obj 461 774 i;
#X obj 573 624 vsl 15 128 1 32 0 0 empty empty empty 0 -9 0 10 -262144
-1 -1 0 1;
#X floatatom 622 797 5 0 0 0 - - -;
#X msg 575 831 ratered \$1;
#X msg 262 431 16;
#X obj 747 608 vsl 15 128 0.1 1 0 0 empty empty empty 0 -9 0 10 -262144
-1 -1 0 1;
#X floatatom 782 745 5 0 0 0 - - -;
#X msg 743 797 wet \$1;
#X obj 686 291 vsl 15 128 0 100 0 0 empty empty empty 0 -9 0 10 -262144
-1 -1 0 1;
#X obj 653 417 f;
#N canvas 641 265 944 637 tensionparams 0;
#X obj 31 176 abs/dkrange 0 100 16 6;
#X floatatom 31 200 5 0 0 0 - - -;
#X obj 182 210 abs/dkrange 0 100 1 32;
#X floatatom 182 234 5 0 0 0 - - -;
#X obj 236 268 abs/dkrange 0 100 0 0.9;
#X floatatom 236 292 5 0 0 0 - - -;
#X obj 140 85 abs/pdkl-rrand2;
#X obj 24 126 * 1;
#X obj 302 161 * 1;
#X obj 363 226 * 1;
#X obj 547 301 * 1;
#X msg 578 407 1;
#X obj 578 431 -;
#X text 582 306 wet;
#X obj 541 489 pack f f;
#X obj 547 325 / 100;
#X obj 547 349 abs/dkrange 0 1 0.995 0.3;
#X obj 541 377 t f b f;
#X text 617 486 dry wet;
#X msg 541 513 dry \$1 \, wet \$2;
#X obj 189 17 inlet;
#X obj 53 28 inlet;
#X obj 80 582 outlet;
#X text 43 245 bitcrush;
#X text 178 307 ratered;
#X text 223 380 distort;
#X obj 647 586 outlet;
#X obj 164 592 outlet;
#X obj 258 587 outlet;
#X text 244 22 random;
#X text 100 24 tension 0 100;
#X obj 140 109 unpack f f f f f, f 45;
#X obj 317 423 abs/dkrange 0 100 0 0.6;
#X text 357 463 delay wet;
#X obj 338 384 * 1;
#X msg 146 54 5 0 1 0 1 0 1 0 1 0 1;
#X obj 327 588 outlet;
#X floatatom 317 447 5 0 0 0 - - -;
#X connect 0 0 1 0;
#X connect 0 0 22 0;
#X connect 2 0 3 0;
#X connect 2 0 27 0;
#X connect 4 0 5 0;
#X connect 4 0 28 0;
#X connect 6 0 31 0;
#X connect 7 0 0 0;
#X connect 8 0 2 0;
#X connect 9 0 4 0;
#X connect 10 0 15 0;
#X connect 11 0 12 0;
#X connect 12 0 14 1;
#X connect 14 0 19 0;
#X connect 15 0 16 0;
#X connect 16 0 17 0;
#X connect 17 0 14 0;
#X connect 17 1 11 0;
#X connect 17 2 12 1;
#X connect 19 0 26 0;
#X connect 20 0 35 0;
#X connect 21 0 7 0;
#X connect 21 0 8 0;
#X connect 21 0 34 0;
#X connect 21 0 9 0;
#X connect 21 0 10 0;
#X connect 31 0 7 1;
#X connect 31 1 8 1;
#X connect 31 2 9 1;
#X connect 31 3 34 1;
#X connect 31 4 10 1;
#X connect 32 0 36 0;
#X connect 32 0 37 0;
#X connect 34 0 32 0;
#X connect 35 0 6 0;
#X restore 660 463 pd tensionparams;
#X floatatom 688 432 5 0 0 0 - - -;
#X obj 704 206 t b b;
#X msg 679 258 0;
#X obj 536 207 s randomizer_trig;
#X obj 447 78 t b b b b, f 33;
#N canvas 794 114 990 824 tensioncalc 0;
#X obj 225 79 r curlength;
#X obj 272 183 random 3;
#X obj 118 635 /, f 10;
#X obj 272 231 t f f f;
#X obj 295 313 abs/dkfor;
#X obj 295 361 *;
#X obj 402 250 t b f;
#X msg 402 274 1;
#X obj 402 298 /, f 8;
#X obj 295 385 * 100;
#X obj 295 409 i;
#X obj 375 459 random;
#X obj 404 371 i;
#X obj 294 513 +, f 7;
#X obj 295 433 t f b;
#X obj 402 338 * 100;
#X obj 272 207 + 1;
#X obj 296 626 abs/pdkl-fill;
#X obj 225 122 t f b b;
#X text 473 683 tension levels;
#X obj 113 675 s subdiv;
#X obj 302 681 s tensionlvls;
#X connect 0 0 18 0;
#X connect 1 0 16 0;
#X connect 2 0 20 0;
#X connect 3 0 2 1;
#X connect 3 1 4 0;
#X connect 3 2 6 0;
#X connect 4 0 5 0;
#X connect 4 1 17 1;
#X connect 5 0 9 0;
#X connect 6 0 7 0;
#X connect 6 1 8 1;
#X connect 7 0 8 0;
#X connect 8 0 15 0;
#X connect 8 0 5 1;
#X connect 9 0 10 0;
#X connect 10 0 14 0;
#X connect 11 0 13 1;
#X connect 12 0 11 1;
#X connect 13 0 17 0;
#X connect 14 0 13 0;
#X connect 14 1 11 0;
#X connect 15 0 12 0;
#X connect 16 0 3 0;
#X connect 17 0 21 0;
#X connect 18 0 2 0;
#X connect 18 1 1 0;
#X connect 18 2 17 2;
#X restore 470 13 pd tensioncalc;
#N canvas 185 114 1093 938 tensioner 0;
#X obj 324 107 r subdiv;
#X obj 325 287 r tensionlvls;
#X obj 94 47 r startyrengines;
#X obj 161 97 sel 0;
#X msg 161 121 0;
#X obj 93 169 f;
#X obj 213 158 + 1;
#X obj 94 136 metro;
#X obj 232 361 list store;
#X msg 231 270 get \$1 1;
#X obj 87 279 random;
#X obj 55 396 f;
#X obj 60 435 -, f 8;
#X obj 73 799 line, f 28;
#X obj 163 467 pack f f;
#X obj 99 528 list;
#X obj 158 238 / 3;
#X obj 158 262 i;
#X text 20 246 swell dur;
#X text 250 470 swell dur \, tension lvl;
#X text 216 402 delay before swell dur;
#X obj 63 475 del;
#X obj 56 363 t b f;
#X obj 83 708 list, f 17;
#X obj 87 303 t f f f f;
#X obj 92 630 f;
#X text 134 644 swell dur;
#X obj 99 552 t b l;
#X obj 92 654 del;
#X obj 73 823 spigot, f 65;
#X obj 93 193 t b f, f 19;
#X obj 94 71 t f f f f, f 63;
#X obj 561 593 sel 0;
#X msg 561 617 stop;
#X obj 73 847 s tensionval;
#X msg 163 491 \$2 \$1;
#X msg 328 637 0 \$1;
#X obj 291 565 * 0.33;
#X text 362 561 swell dur/3 0;
#X connect 0 0 7 1;
#X connect 0 0 11 1;
#X connect 0 0 16 0;
#X connect 1 0 8 1;
#X connect 2 0 31 0;
#X connect 3 0 4 0;
#X connect 4 0 5 1;
#X connect 5 0 6 0;
#X connect 5 0 30 0;
#X connect 6 0 5 1;
#X connect 7 0 5 0;
#X connect 8 0 14 1;
#X connect 9 0 8 0;
#X connect 10 0 24 0;
#X connect 11 0 12 0;
#X connect 12 0 21 0;
#X connect 13 0 29 0;
#X connect 14 0 35 0;
#X connect 15 0 27 0;
#X connect 16 0 17 0;
#X connect 17 0 10 1;
#X connect 21 0 15 0;
#X connect 22 0 11 0;
#X connect 22 1 12 1;
#X connect 23 0 13 0;
#X connect 24 0 22 0;
#X connect 24 1 25 1;
#X connect 24 2 14 0;
#X connect 24 3 37 0;
#X connect 25 0 28 0;
#X connect 27 0 25 0;
#X connect 27 1 13 0;
#X connect 28 0 23 0;
#X connect 29 0 34 0;
#X connect 30 0 10 0;
#X connect 30 1 9 0;
#X connect 31 0 7 0;
#X connect 31 1 3 0;
#X connect 31 2 29 1;
#X connect 31 3 32 0;
#X connect 32 0 33 0;
#X connect 33 0 13 0;
#X connect 35 0 15 1;
#X connect 36 0 23 1;
#X connect 37 0 36 0;
#X restore 582 13 pd tensioner;
#X obj 735 254 r tensionval;
#X obj 131 782 hip~ 20;
#X obj 131 806 lop~ 20000;
#X obj 219 780 hip~ 20;
#X obj 219 804 lop~ 20000;
#X connect 1 0 98 0;
#X connect 1 1 100 0;
#X connect 2 0 15 0;
#X connect 2 1 15 1;
#X connect 3 0 5 0;
#X connect 3 0 30 0;
#X connect 4 0 93 0;
#X connect 6 0 15 0;
#X connect 6 1 15 1;
#X connect 7 0 8 0;
#X connect 7 0 2 4;
#X connect 9 0 10 0;
#X connect 9 0 6 1;
#X connect 11 0 71 0;
#X connect 11 0 83 0;
#X connect 13 0 94 0;
#X connect 14 0 30 0;
#X connect 15 0 1 0;
#X connect 15 1 1 1;
#X connect 16 0 17 0;
#X connect 17 0 28 0;
#X connect 17 0 72 0;
#X connect 18 0 65 0;
#X connect 19 0 22 0;
#X connect 19 1 23 0;
#X connect 20 0 30 1;
#X connect 21 0 30 1;
#X connect 22 0 3 0;
#X connect 22 1 21 0;
#X connect 23 0 20 0;
#X connect 23 1 14 0;
#X connect 23 2 94 0;
#X connect 24 0 25 0;
#X connect 24 0 26 0;
#X connect 25 0 15 2;
#X connect 27 0 15 2;
#X connect 28 0 30 2;
#X connect 28 1 29 0;
#X connect 29 0 15 2;
#X connect 30 0 2 0;
#X connect 30 1 2 1;
#X connect 30 2 6 0;
#X connect 31 0 27 0;
#X connect 31 0 32 0;
#X connect 33 0 37 0;
#X connect 33 0 34 0;
#X connect 35 0 38 0;
#X connect 35 0 36 0;
#X connect 37 0 15 2;
#X connect 38 0 15 2;
#X connect 39 0 40 0;
#X connect 40 0 7 0;
#X connect 40 0 9 0;
#X connect 41 0 24 0;
#X connect 42 0 33 0;
#X connect 43 0 44 0;
#X connect 44 0 46 0;
#X connect 44 0 45 0;
#X connect 46 0 15 2;
#X connect 47 0 49 0;
#X connect 47 0 48 0;
#X connect 49 0 15 2;
#X connect 50 0 47 0;
#X connect 51 0 55 0;
#X connect 51 0 52 0;
#X connect 53 0 56 0;
#X connect 53 0 54 0;
#X connect 55 0 15 2;
#X connect 56 0 15 2;
#X connect 57 0 41 0;
#X connect 57 1 60 0;
#X connect 57 2 69 0;
#X connect 57 3 70 0;
#X connect 57 4 42 0;
#X connect 57 5 61 0;
#X connect 57 6 43 0;
#X connect 57 7 50 0;
#X connect 58 0 57 0;
#X connect 60 0 31 0;
#X connect 61 0 35 0;
#X connect 62 0 30 0;
#X connect 62 1 94 0;
#X connect 63 0 64 0;
#X connect 65 0 19 0;
#X connect 66 0 67 0;
#X connect 67 0 18 0;
#X connect 68 0 18 0;
#X connect 69 0 51 0;
#X connect 70 0 53 0;
#X connect 71 0 1 2;
#X connect 73 0 74 0;
#X connect 73 0 75 0;
#X connect 75 0 15 2;
#X connect 76 0 79 0;
#X connect 78 0 15 2;
#X connect 79 0 78 0;
#X connect 79 0 77 0;
#X connect 80 0 82 0;
#X connect 80 0 81 0;
#X connect 82 0 15 2;
#X connect 83 0 76 0;
#X connect 84 0 86 0;
#X connect 84 0 85 0;
#X connect 86 0 15 2;
#X connect 87 0 88 0;
#X connect 87 0 90 0;
#X connect 88 0 89 0;
#X connect 89 0 76 0;
#X connect 89 1 80 0;
#X connect 89 2 73 0;
#X connect 89 3 84 0;
#X connect 89 4 15 2;
#X connect 91 0 89 1;
#X connect 91 1 92 0;
#X connect 92 0 87 0;
#X connect 94 0 16 0;
#X connect 94 1 4 0;
#X connect 94 2 58 0;
#X connect 94 3 91 0;
#X connect 97 0 87 0;
#X connect 98 0 99 0;
#X connect 99 0 0 0;
#X connect 100 0 101 0;
#X connect 101 0 0 1;
