#N canvas 687 176 947 619 12;
#X obj 141 151 poly 8 1;
#X obj 160 250 pack f f f;
#X obj 165 25 notein;
#X msg 299 119 4 4 20 0 100 4 20 0 100;
#X obj 305 163 abs/pdkl-rrand2;
#X obj 299 206 list prepend all;
#X obj 299 230 list trim;
#X obj 142 196 - 1;
#X obj 113 299 clone -x gkabs/synthvoice 8;
#X obj 297 36 inlet;
#X text 359 42 randomize timbre;
#X obj 297 60 bang;
#X obj 134 472 outlet~;
#X obj 303 453 outlet~;
#X obj 233 84 != 10;
#X obj 144 110 spigot;
#X obj 202 114 spigot;
#X obj 557 50 inlet;
#X text 601 47 vol;
#X obj 660 50 loadbang;
#X msg 660 74 1;
#X obj 546 128 line~;
#X msg 557 74 \$1 5;
#X obj 113 323 *~;
#X obj 305 342 *~;
#X obj 738 57 inlet;
#X msg 738 81 all \$1;
#X text 793 54 panning;
#X connect 0 0 7 0;
#X connect 0 1 1 1;
#X connect 0 2 1 2;
#X connect 1 0 8 0;
#X connect 2 0 15 0;
#X connect 2 1 16 0;
#X connect 2 2 14 0;
#X connect 3 0 4 0;
#X connect 4 0 5 0;
#X connect 5 0 6 0;
#X connect 6 0 8 2;
#X connect 7 0 1 0;
#X connect 8 0 23 0;
#X connect 8 1 24 0;
#X connect 9 0 11 0;
#X connect 11 0 3 0;
#X connect 14 0 16 1;
#X connect 14 0 15 1;
#X connect 15 0 0 0;
#X connect 16 0 0 1;
#X connect 17 0 22 0;
#X connect 19 0 20 0;
#X connect 20 0 21 0;
#X connect 21 0 23 1;
#X connect 21 0 24 1;
#X connect 22 0 21 0;
#X connect 23 0 12 0;
#X connect 24 0 13 0;
#X connect 25 0 26 0;
#X connect 26 0 8 1;
