#N canvas 482 148 1422 845 12;
#X obj 100 435 pack f f f;
#X obj 460 654 abs/pdkl-rrand2;
#X obj 91 317 - 1;
#X obj 363 34 inlet;
#X text 425 40 randomize timbre;
#X obj 363 221 bang;
#X obj 134 635 outlet~;
#X obj 303 616 outlet~;
#X obj 228 177 != 10;
#X obj 105 223 spigot;
#X obj 179 237 spigot;
#X obj 739 52 inlet;
#X text 783 49 vol;
#X obj 842 215 loadbang;
#X msg 842 239 1;
#X obj 728 293 line~;
#X msg 739 239 \$1 5;
#X obj 67 535 *~;
#X obj 305 505 *~;
#X obj 920 59 inlet;
#X msg 920 246 all \$1;
#X text 975 56 panning;
#X obj 123 26 inlet;
#X obj 123 120 unpack f f;
#X obj 227 9 inlet;
#X obj 439 497 r panic;
#X msg 438 576 all 64 0;
#X obj 600 559 abs/dkfor;
#X obj 669 622 text define timbres;
#X obj 486 735 text insert timbres;
#X obj 636 451 t b b;
#X msg 694 578 clear;
#X obj 600 583 bang;
#X obj 460 678 t l b;
#X msg 564 707 0;
#X obj 264 436 list append;
#X obj 291 387 text get timbres;
#X msg 634 501 20;
#X obj 559 41 inlet;
#X text 617 40 randomize adsr;
#X obj 863 648 abs/pdkl-rrand2;
#X obj 1003 553 abs/dkfor;
#X obj 1039 445 t b b;
#X msg 1097 572 clear;
#X obj 1003 577 bang;
#X obj 863 672 t l b;
#X msg 967 701 0;
#X msg 1037 495 20;
#X obj 1072 616 text define adsrs;
#X obj 889 729 text insert adsrs;
#X obj 91 373 t f f f;
#X obj 559 210 bang;
#X obj 227 33 t f f f;
#X obj 411 431 list append;
#X obj 438 382 text get adsrs;
#X obj 92 289 poly 16 1;
#X obj 67 511 clone -x gkabs/synthvoice 16;
#X obj 243 300 abs/dkstrippoly 16 1;
#X obj 243 324 - 1;
#X obj 1003 107 loadbang;
#X msg 1097 152 all 125;
#X msg 985 162 all 0.1;
#X msg 460 624 4 1 6 5 50 1 3 3 50;
#X msg 831 612 4 5 50 10 50 0.005 0.2 5 250;
#X connect 0 0 56 0;
#X connect 1 0 33 0;
#X connect 2 0 50 0;
#X connect 3 0 5 0;
#X connect 5 0 30 0;
#X connect 8 0 10 1;
#X connect 8 0 9 1;
#X connect 9 0 57 0;
#X connect 10 0 57 1;
#X connect 11 0 16 0;
#X connect 13 0 14 0;
#X connect 14 0 15 0;
#X connect 15 0 17 1;
#X connect 15 0 18 1;
#X connect 16 0 15 0;
#X connect 17 0 6 0;
#X connect 18 0 7 0;
#X connect 19 0 20 0;
#X connect 20 0 56 1;
#X connect 22 0 23 0;
#X connect 23 0 9 0;
#X connect 23 1 10 0;
#X connect 24 0 52 0;
#X connect 25 0 26 0;
#X connect 26 0 56 0;
#X connect 27 0 32 0;
#X connect 30 0 37 0;
#X connect 30 1 31 0;
#X connect 31 0 28 0;
#X connect 32 0 62 0;
#X connect 33 0 29 0;
#X connect 33 1 34 0;
#X connect 34 0 29 1;
#X connect 35 0 56 2;
#X connect 36 0 35 1;
#X connect 37 0 27 0;
#X connect 38 0 51 0;
#X connect 40 0 45 0;
#X connect 41 0 44 0;
#X connect 42 0 47 0;
#X connect 42 1 43 0;
#X connect 43 0 48 0;
#X connect 44 0 63 0;
#X connect 45 0 49 0;
#X connect 45 1 46 0;
#X connect 46 0 49 1;
#X connect 47 0 41 0;
#X connect 50 0 0 0;
#X connect 50 1 35 0;
#X connect 50 2 53 0;
#X connect 51 0 42 0;
#X connect 52 0 8 0;
#X connect 52 1 36 0;
#X connect 52 2 54 0;
#X connect 53 0 56 3;
#X connect 54 0 53 1;
#X connect 55 0 2 0;
#X connect 55 1 0 1;
#X connect 55 2 0 2;
#X connect 56 0 17 0;
#X connect 56 1 18 0;
#X connect 57 0 58 0;
#X connect 57 1 0 1;
#X connect 57 2 0 2;
#X connect 58 0 50 0;
#X connect 59 0 60 0;
#X connect 59 0 61 0;
#X connect 60 0 56 5;
#X connect 61 0 56 4;
#X connect 62 0 1 0;
#X connect 63 0 40 0;
